<?xml version="1.0" encoding="UTF-8"?>
<svg width="601px" height="237px" viewBox="0 0 601 237" version="1.1" xmlns="http://www.w3.org/2000/svg" xmlns:xlink="http://www.w3.org/1999/xlink">
    <!-- Generator: Sketch 51.3 (57544) - http://www.bohemiancoding.com/sketch -->
    <title>trello-logo-blue</title>
    <desc>Created with Sketch.</desc>
    <defs></defs>
    <g id="Page-1" stroke="none" stroke-width="1" fill="none" fill-rule="evenodd">
        <g id="trello-logo-blue" fill="#0079BF" fill-rule="nonzero">
            <path d="M438.29354,177.589525 C425.522868,182.793147 415.445278,200.770881 400.1184,210.9888 C399.168,211.6224 398.2176,211.9392 397.584,211.9392 C396.3168,211.9392 394.7328,210.672 394.7328,204.9696 C394.7328,185.328 401.0688,175.824 406.4544,161.8848 C425.1456,113.4144 457.1424,71.9136 485.6544,26.6112 C487.872,23.1264 489.1392,19.3248 489.1392,15.2064 C489.1392,11.7216 487.872,8.8704 486.288,5.3856 C485.0208,2.5344 479.3184,0 472.9824,0 C469.4976,0 466.3296,0.3168 462.2112,0.3168 C447.3216,0.3168 444.1536,22.176 440.6688,27.8784 C416.9088,68.112 389.664,117.8496 375.7248,153.0144 C372.668102,160.897464 369.366309,168.780528 366.85663,176.871034 C353.081883,180.859826 342.762454,200.227697 326.6208,210.9888 C325.6704,211.6224 324.72,211.9392 324.0864,211.9392 C322.8192,211.9392 321.2352,210.672 321.2352,204.9696 C321.2352,185.328 327.5712,175.824 332.9568,161.8848 C351.648,113.4144 383.6448,71.9136 412.1568,26.6112 C414.3744,23.1264 415.6416,19.3248 415.6416,15.2064 C415.6416,11.7216 414.3744,8.8704 412.7904,5.3856 C411.5232,2.5344 405.8208,0 399.4848,0 C396,0 392.832,0.3168 388.7136,0.3168 C373.824,0.3168 370.656,22.176 367.1712,27.8784 C343.4112,68.112 316.1664,117.8496 302.2272,153.0144 C301.119038,155.872292 299.978662,158.730185 298.855495,161.597962 C298.508659,161.783218 298.154477,161.984114 297.792,162.2016 C281.6352,171.7056 268.0128,188.496 248.3712,199.9008 C244.5696,202.1184 232.848,210.3552 223.344,210.3552 C221.1264,210.3552 219.2256,209.7216 217.3248,208.7712 C214.4736,207.504 211.6224,201.4848 211.6224,199.584 C211.6224,198 211.9392,197.6832 215.1072,195.7824 C242.9856,178.992 265.7952,154.9152 285.4368,130.8384 C292.7232,121.968 302.2272,104.544 302.2272,91.872 C302.2272,83.6352 299.376,74.1312 289.5552,70.6464 C282.5856,68.112 274.6656,66.8448 268.3296,66.8448 C251.5392,66.8448 239.184,74.448 232.2144,81.7344 C225.118962,89.3092596 218.25569,97.087265 211.87931,105.138685 C205.217004,99.3868496 195.819897,96.9408 186.912,96.9408 C176.4576,96.9408 156.816,109.9296 146.6784,117.5328 C145.0944,118.8 144.144,119.4336 143.5104,119.4336 C143.1936,119.4336 142.8768,119.1168 142.8768,118.4832 C142.8768,118.1664 143.5104,115.3152 143.5104,110.2464 C143.5104,105.8112 142.56,100.1088 138.4416,93.1392 C137.4912,91.5552 131.7888,88.0704 124.8192,88.0704 C116.2656,88.0704 108.3456,92.1888 108.3456,96.624 C108.3456,99.792 111.1968,101.0592 111.1968,103.9104 C111.1968,105.4944 109.9296,112.7808 108.0288,119.7504 C102.6432,140.0256 95.9904,159.984 89.0208,179.9424 C85.2192,191.0304 72.5472,200.8512 72.5472,212.8896 C72.5472,216.6912 75.0816,221.76 78.5664,225.5616 C84.2688,231.8976 87.7536,234.1152 92.8224,234.1152 C95.04,234.1152 97.5744,233.4816 99.792,231.5808 C104.544,227.4624 107.0784,223.344 108.3456,217.6416 C116.5824,180.2592 140.3424,154.9152 166.6368,138.1248 C175.5072,132.4224 187.5456,126.4032 189.1296,126.4032 C190.753839,126.4032 193.294103,127.152675 195.853793,127.883111 C188.503522,139.871969 182.547939,152.515386 178.6752,166.0032 C177.408,170.4384 176.7744,174.5568 176.7744,178.992 C176.7744,186.2784 178.3584,193.8816 180.8928,201.168 C184.3776,211.3056 190.08,220.176 198,224.2944 C212.5728,231.8976 223.0272,236.016 232.5312,236.016 C237.9168,236.016 242.0352,235.0656 246.4704,232.5312 C267.292673,220.750177 280.058884,211.81247 289.277157,203.873846 C289.529918,211.922923 291.116566,216.382314 296.8416,222.3936 C302.544,228.4128 311.4144,233.7984 323.136,236.3328 C325.0368,236.6496 326.9376,236.9664 328.8384,236.9664 C342.249499,236.9664 355.155947,226.065941 365.108075,215.260049 C366.260342,217.618088 367.9348,219.86898 370.3392,222.3936 C376.0416,228.4128 384.912,233.7984 396.6336,236.3328 C398.5344,236.6496 400.4352,236.9664 402.336,236.9664 C418.045767,236.9664 433.063062,222.00902 443.45036,209.767345 C446.912282,216.927848 456.586543,224.007351 468.2304,229.68 C471.3984,231.264 475.2,232.2144 478.6848,232.2144 C492.3072,232.2144 502.128,221.1264 509.7312,212.8896 C529.3728,191.3472 540.144,164.736 548.3808,131.1552 C549.0144,128.6208 549.9648,127.6704 551.232,127.6704 C554.4,127.6704 558.5184,127.6704 562.9536,127.0368 C571.5072,125.7696 578.16,122.9184 586.08,121.6512 C590.832,120.7008 590.1984,119.1168 594.6336,117.5328 C597.8016,116.2656 600.336,114.9984 600.336,111.8304 C600.336,106.4448 590.5152,100.7424 575.6256,100.7424 C563.904,100.7424 556.9344,101.6928 552.1824,101.6928 C544.896,101.6928 542.9952,99.4752 538.2432,87.12 C538.2432,87.12 542.9952,99.4752 538.2432,87.12 C537.2928,84.5856 536.3424,83.3184 533.4912,80.784 C526.8384,75.0816 518.6016,73.1808 511.9488,73.1808 C496.1088,73.1808 482.4864,89.3376 472.9824,102.96 C470.7648,106.128 467.5968,108.6624 465.3792,112.1472 C452.329185,131.722222 439.834513,153.79629 438.29354,177.589525 Z M33.264,69.696 C41.184,69.696 45.6192,69.0624 46.5696,69.0624 C47.52,69.0624 48.1536,69.3792 48.1536,70.3296 C48.1536,70.9632 47.8368,71.9136 45.6192,76.6656 C26.2944,118.1664 12.9888,160.3008 1.2672,206.8704 C0.9504,208.1376 0,212.8896 0,217.6416 C0,222.0768 1.2672,226.8288 5.7024,229.3632 C14.256,234.432 21.2256,236.6496 25.9776,236.6496 C32.9472,236.6496 36.432,232.2144 36.432,224.928 C36.432,218.592 36.7488,211.9392 37.6992,206.8704 C46.5696,160.3008 59.8752,123.8688 80.4672,85.8528 C90.288,67.7952 91.5552,66.8448 91.5552,65.2608 C91.5552,64.6272 91.2384,63.6768 90.6048,62.7264 C103.2768,59.8752 118.4832,57.9744 132.4224,57.9744 C134.0064,57.9744 140.3424,60.192 141.2928,61.1424 C143.5104,63.36 145.728,65.5776 149.5296,65.5776 C152.6976,65.5776 158.0832,63.36 159.984,62.0928 C164.4192,58.9248 166.6368,55.44 166.6368,49.7376 C166.6368,44.352 146.6784,31.0464 132.7392,31.0464 C115.632,31.0464 100.1088,33.264 85.536,36.1152 C79.2,37.3824 56.3904,40.8672 39.9168,40.8672 C24.0768,40.8672 25.0272,38.6496 18.3744,38.6496 C14.5728,38.6496 12.672,40.5504 11.088,42.1344 C9.504,43.7184 8.5536,50.0544 8.5536,55.7568 C8.5536,58.608 8.5536,60.8256 10.1376,62.7264 C14.8896,68.4288 24.0768,69.696 33.264,69.696 C33.264,69.696 24.0768,69.696 33.264,69.696 Z M268.0128,95.3568 C268.0128,98.208 267.0624,100.1088 263.2608,106.128 C259.4592,112.1472 261.0432,112.1472 256.2912,118.4832 C247.104,130.8384 235.6992,143.1936 220.8096,156.816 C216.6912,160.6176 216.0576,160.6176 215.424,160.6176 C215.1072,160.6176 214.4736,160.3008 214.4736,159.6672 C214.4736,158.7168 214.7904,157.4496 217.9584,150.7968 C227.7792,130.2048 239.8176,116.5824 253.1232,103.2768 C260.4096,95.9904 264.8448,93.456 266.4288,93.456 C267.3792,93.456 268.0128,93.7728 268.0128,95.3568 C268.0128,95.3568 268.0128,93.7728 268.0128,95.3568 Z M511.632,103.5936 C511.9488,103.5936 512.2656,103.9104 512.5824,104.544 C512.8992,105.4944 513.5328,106.4448 515.1168,107.712 C516.384,108.6624 516.384,113.0976 516.384,116.5824 C516.384,147.312 498.96,172.656 481.8528,198.3168 C478.0512,204.0192 475.8336,204.9696 473.9328,204.9696 C472.3488,204.9696 469.8144,200.8512 468.864,198.3168 C467.5968,194.832 467.28,190.7136 467.28,189.1296 C467.28,164.4192 490.7232,127.6704 506.2464,107.3952 C508.7808,103.9104 510.6816,103.5936 511.632,103.5936 C511.632,103.5936 510.6816,103.5936 511.632,103.5936 Z" id="Type"></path>
        </g>
    </g>
</svg>